# xmcd
#
# Track frame offsets: 
#        150
#        15119
#        30068
#        44562
#        56542
#        68682
#        83357
#
# Disc length: 1300 seconds
#
# Revision: 0
# Processed by: cddbd v1.5.2PL0 Copyright (c) Steve Scherf et al.
# Submitted via: ExactAudioCopy v0.99pb5
#
DISCID=3d051207
DTITLE=Eric Lindell - The Sun and the Sea
DYEAR=2015
DGENRE=
TTITLE0=Going to California
TTITLE1=I Lost You
TTITLE2=Milk and Honey
TTITLE3=This Love is Gonna Last
TTITLE4=Wrong Too Long
TTITLE5=You Look So Good in Love
TTITLE6=The Sun and the Sea
EXTD=
EXTT0=
EXTT1=
EXTT2=
EXTT3=
EXTT4=
EXTT5=
EXTT6=
PLAYORDER=
